<?xml version="1.0" encoding="utf-8"?>
<!-- Generator: Adobe Illustrator 21.1.0, SVG Export Plug-In . SVG Version: 6.00 Build 0)  -->
<svg version="1.1" id="Layer_1" xmlns="http://www.w3.org/2000/svg" xmlns:xlink="http://www.w3.org/1999/xlink" x="0px" y="0px"
	 viewBox="0 0 200 200" style="enable-background:new 0 0 200 200;" xml:space="preserve">
<style type="text/css">
	.st0{fill:#a96404;}
</style>
<g id="Page-1">
	<g id="libraries-1">
		<g id="libraries">
			<path id="Shape" class="st0" d="M0,0h200v200H0V0z M149.2,43H51.8c-1.9,0-3.6,1.7-3.6,3.6v11.9c0,1.9,1.7,3.6,3.6,3.6h97.4
				c1.9,0,3.6-1.7,3.6-3.6V46.6C152.8,44.7,151.1,43,149.2,43z M73.2,71.5H51.8c-1.9,0-3.6,1.7-3.6,3.6v7.1c0,1.9,1.7,3.6,3.6,3.6
				h21.4c1.9,0,3.6-1.7,3.6-3.6v-7.1C76.8,73.2,75.1,71.5,73.2,71.5z M111.2,71.5H89.8c-1.9,0-3.6,1.7-3.6,3.6v7.1
				c0,1.9,1.7,3.6,3.6,3.6h21.4c1.9,0,3.6-1.7,3.6-3.6v-7.1C114.8,73.2,113.1,71.5,111.2,71.5z M149.2,71.5h-21.4
				c-1.9,0-3.6,1.7-3.6,3.6v7.1c0,1.9,1.7,3.6,3.6,3.6h21.4c1.9,0,3.6-1.7,3.6-3.6v-7.1C152.8,73.2,151.1,71.5,149.2,71.5z
				 M73.2,95.2H51.8c-1.9,0-3.6,1.7-3.6,3.6v7.1c0,1.9,1.7,3.6,3.6,3.6h21.4c1.9,0,3.6-1.7,3.6-3.6v-7.1
				C76.8,96.9,75.1,95.2,73.2,95.2z M111.2,95.2H89.8c-1.9,0-3.6,1.7-3.6,3.6v7.1c0,1.9,1.7,3.6,3.6,3.6h21.4c1.9,0,3.6-1.7,3.6-3.6
				v-7.1C114.8,96.9,113.1,95.2,111.2,95.2z M149.2,95.2h-21.4c-1.9,0-3.6,1.7-3.6,3.6v7.1c0,1.9,1.7,3.6,3.6,3.6h21.4
				c1.9,0,3.6-1.7,3.6-3.6v-7.1C152.8,96.9,151.1,95.2,149.2,95.2z M73.2,119H51.8c-1.9,0-3.6,1.7-3.6,3.6v7.1
				c0,1.9,1.7,3.6,3.6,3.6h21.4c1.9,0,3.6-1.7,3.6-3.6v-7.1C76.8,120.7,75.1,119,73.2,119z M111.2,119H89.8c-1.9,0-3.6,1.7-3.6,3.6
				v7.1c0,1.9,1.7,3.6,3.6,3.6h21.4c1.9,0,3.6-1.7,3.6-3.6v-7.1C114.8,120.7,113.1,119,111.2,119z M149.2,119h-21.4
				c-1.9,0-3.6,1.7-3.6,3.6v7.1c0,1.9,1.7,3.6,3.6,3.6h21.4c1.9,0,3.6-1.7,3.6-3.6v-7.1C152.8,120.7,151.1,119,149.2,119z
				 M73.2,142.8H51.8c-1.9,0-3.6,1.7-3.6,3.6v7.1c0,1.9,1.7,3.6,3.6,3.6h21.4c1.9,0,3.6-1.7,3.6-3.6v-7.1
				C76.8,144.4,75.1,142.8,73.2,142.8z M111.2,142.8H89.8c-1.9,0-3.6,1.7-3.6,3.6v7.1c0,1.9,1.7,3.6,3.6,3.6h21.4
				c1.9,0,3.6-1.7,3.6-3.6v-7.1C114.8,144.4,113.1,142.8,111.2,142.8z M149.2,142.8h-21.4c-1.9,0-3.6,1.7-3.6,3.6v7.1
				c0,1.9,1.7,3.6,3.6,3.6h21.4c1.9,0,3.6-1.7,3.6-3.6v-7.1C152.8,144.4,151.1,142.8,149.2,142.8z"/>
		</g>
	</g>
</g>
</svg>
