<svg height="120" viewBox="0 0 120 120" width="120" xmlns="http://www.w3.org/2000/svg"><g fill-rule="evenodd"><path d="m101.1 16.307a59.994 59.994 0 0 0 -100.954 39.899 59.512 59.512 0 0 0 16.154 44.894 60.236 60.236 0 0 0 43.718 18.91h55.382a4.614 4.614 0 0 0 4.614-4.614v-55.371a60.222 60.222 0 0 0 -18.914-43.718z" fill="#c43e20"/><path d="m94.919 22.818a50.511 50.511 0 0 0 -34.883-13.831q-1.64 0-3.295.1a51.009 51.009 0 0 0 3.259 101.913h51v-51.006a50.533 50.533 0 0 0 -16.081-37.176z" fill="#fb7555"/><path d="m39.556 44h40.894a4.5 4.5 0 1 0 0-9.01h-40.894a4.5 4.5 0 1 0 0 9.01zm-13.956 12a4.505 4.505 0 1 0 0 9.01h68.807a4.505 4.505 0 1 0 0-9.01zm13.956 30h40.894a4.5 4.5 0 1 0 0-9.01h-40.894a4.5 4.5 0 1 0 0 9.01z" fill="#fff"/></g></svg>