<?xml version="1.0" encoding="utf-8"?>
<!-- Generator: Adobe Illustrator 21.1.0, SVG Export Plug-In . SVG Version: 6.00 Build 0)  -->
<svg version="1.1" id="Layer_1" xmlns="http://www.w3.org/2000/svg" xmlns:xlink="http://www.w3.org/1999/xlink" x="0px" y="0px"
	 viewBox="0 0 200 200" style="enable-background:new 0 0 200 200;" xml:space="preserve">
<style type="text/css">
	.st0{fill:#F88962;}
	.st1{fill:#FFFFFF;}
</style>
<title>libraries 2</title>
<desc>Created with Sketch.</desc>
<path id="Shape" class="st0" d="M0,0h200v200H0V0z"/>
<path class="st1" d="M100,35c-35.9,0-65,29.1-65,65s29.1,65,65,65s65-29.1,65-65S135.9,35,100,35z M100,152.1
	c-28.6,0-52.1-23.5-52.1-52.1S71.4,47.9,100,47.9s52.1,23.5,52.1,52.1S128.6,152.1,100,152.1z M100,61.1
	c-21.4,0-38.9,17.5-38.9,38.9s17.5,38.9,38.9,38.9s38.9-17.5,38.9-38.9S121.4,61.1,100,61.1z M100,126.1
	c-14.2,0-26.1-11.6-26.1-26.1S85.8,73.9,100,73.9s26.1,11.9,26.1,26.1S114.2,126.1,100,126.1z M100,87.1c-7.2,0-12.9,5.9-12.9,12.9
	s5.9,12.9,12.9,12.9s12.9-5.9,12.9-12.9S107.2,87.1,100,87.1z"/>
</svg>
