<?xml version="1.0" encoding="UTF-8" standalone="no"?>
<svg width="200px" height="200px" viewBox="0 0 200 200" version="1.1" xmlns="http://www.w3.org/2000/svg" xmlns:xlink="http://www.w3.org/1999/xlink" xmlns:sketch="http://www.bohemiancoding.com/sketch/ns">
    <!-- Generator: Sketch 3.4.2 (15857) - http://www.bohemiancoding.com/sketch -->
    <title>home-page-tabs</title>
    <desc>Created with Sketch.</desc>
    <defs></defs>
    <g id="Page-2" stroke="none" stroke-width="1" fill="none" fill-rule="evenodd" sketch:type="MSPage">
        <g id="tabset" sketch:type="MSLayerGroup" fill="#6bbd6e">
            <g id="Layer_1" sketch:type="MSShapeGroup">
                <path d="M0,0 L200,0 L200,200 L0,200 L0,0 Z M114.581094,37.5 L85.4164499,37.5 C83.5936597,37.5 82.2916667,39.0625 82.2916667,40.8854167 L82.2916667,47.3958333 C82.2916667,49.21875 83.8540583,50.78125 85.4164499,50.78125 L114.581094,50.78125 C116.403884,50.78125 117.705877,49.21875 117.705877,47.3958333 L117.705877,40.8854167 C117.966276,39.0625 116.403884,37.5 114.581094,37.5 L114.581094,37.5 Z M159.114583,37.5 L129.947917,37.5 C128.125,37.5 126.5625,39.0625 126.5625,40.8854167 L126.5625,47.3958333 C126.5625,49.21875 128.125,50.78125 129.947917,50.78125 L159.114583,50.78125 C160.9375,50.5208333 162.5,49.21875 162.5,47.3958333 L162.5,40.8854167 C162.5,39.0625 160.9375,37.5 159.114583,37.5 L159.114583,37.5 Z M159.114583,59.375 L76.5625,59.375 C74.7395833,59.375 73.1770833,57.8125 73.1770833,55.9895833 L73.1770833,40.8854167 C73.1770833,39.0625 71.6145833,37.5 69.7916667,37.5 L40.8854167,37.5 C39.0625,37.5 37.5,39.0625 37.5,40.8854167 L37.5,159.375 C37.5,160.9375 39.0625,162.5 40.8854167,162.5 L45.3125,162.5 L50.5208333,162.5 L159.114583,162.5 C160.9375,162.5 162.5,160.9375 162.5,159.114583 L162.5,62.7604167 C162.5,60.9375 160.9375,59.375 159.114583,59.375 L159.114583,59.375 Z" id="Shape"></path>
            </g>
        </g>
    </g>
</svg>