<svg width="30" height="30" viewBox="0 0 30 30" fill="none" xmlns="http://www.w3.org/2000/svg">
<rect width="30" height="30" rx="4" fill="#F0C95C"/>
<mask id="mask0_3_244" style="mask-type:alpha" maskUnits="userSpaceOnUse" x="0" y="0" width="30" height="30">
<rect width="30" height="30" rx="4" fill="white"/>
</mask>
<g mask="url(#mask0_3_244)">
<path fill-rule="evenodd" clip-rule="evenodd" d="M4.54916 14.9303C4.54916 9.67008 9.18236 5.38525 15 5.38525C20.7828 5.38525 25.4508 9.63525 25.4856 15.0348C25.4856 20.3648 20.8176 24.5799 15.1045 24.6496C13.084 24.6496 11.2028 24.127 9.63523 23.2561C9.39137 23.1168 9.11268 23.0471 8.90367 23.1516L5.10654 24.5799C4.75818 24.6844 4.40982 24.3709 4.54916 24.0225L5.90777 20.2951C5.97744 20.0512 5.9426 19.7725 5.80326 19.5635C5.03687 18.1701 4.54916 16.6025 4.54916 14.9303ZM8.03277 15C8.03277 15.9406 8.79916 16.7418 9.77457 16.7418C10.7151 16.7418 11.5164 15.9406 11.5164 15C11.5164 14.0594 10.75 13.2582 9.77457 13.2582C8.834 13.2582 8.03277 14.0246 8.03277 15ZM15 16.7418C14.0246 16.7418 13.2582 15.9406 13.2582 15C13.2582 14.0246 14.0594 13.2582 15 13.2582C15.9754 13.2582 16.7418 14.0594 16.7418 15C16.7418 15.9406 15.9754 16.7418 15 16.7418ZM18.5184 15C18.5184 15.9406 19.2848 16.7418 20.2602 16.7418C21.2008 16.7418 22.002 15.9406 22.002 15C22.002 14.0594 21.2008 13.2582 20.2602 13.2582C19.3197 13.2582 18.5184 14.0246 18.5184 15Z" fill="white"/>
</g>
</svg>
