<?xml version="1.0" encoding="UTF-8" standalone="no"?>
<svg width="64px" height="64px" viewBox="0 0 64 64" version="1.1" xmlns="http://www.w3.org/2000/svg" xmlns:xlink="http://www.w3.org/1999/xlink" xmlns:sketch="http://www.bohemiancoding.com/sketch/ns">
    <!-- Generator: Sketch 3.5.2 (25235) - http://www.bohemiancoding.com/sketch -->
    <title>tile_card_list</title>
    <desc>Created with Sketch.</desc>
    <defs></defs>
    <g id="Page-1" stroke="none" stroke-width="1" fill="none" fill-rule="evenodd" sketch:type="MSPage">
        <g id="tile_card_list" sketch:type="MSLayerGroup" fill="#56aadf">
            <path d="M-7.11679604e-13,-7.16227078e-13 L64,-7.16227078e-13 L64,64 L-7.11679604e-13,64 L-7.11679604e-13,-7.16227078e-13 L-7.11679604e-13,-7.16227078e-13 Z M21.9809907,11.84 L13.288713,11.84 C12.667836,11.84 11.84,12.6339875 11.84,13.2294781 L11.84,28.9107307 C11.84,29.7047182 12.667836,30.3002088 13.288713,30.3002088 L21.9809907,30.3002088 C22.8088267,30.3002088 23.4297036,29.7047182 23.4297036,28.9107307 L23.4297036,13.2294781 C23.4297036,12.6339875 22.8088267,11.84 21.9809907,11.84 L21.9809907,11.84 Z M36.3809907,11.84 L27.688713,11.84 C27.067836,11.84 26.24,12.6339875 26.24,13.2294781 L26.24,28.9107307 C26.24,29.7047182 27.067836,30.3002088 27.688713,30.3002088 L36.3809907,30.3002088 C37.0018677,30.3002088 37.8297036,29.7047182 37.8297036,28.9107307 L37.8297036,13.2294781 C37.8297036,12.6339875 37.0018677,11.84 36.3809907,11.84 L36.3809907,11.84 Z M50.7809907,11.84 L42.088713,11.84 C41.260877,11.84 40.64,12.6339875 40.64,13.2294781 L40.64,28.9107307 C40.64,29.7047182 41.260877,30.3002088 42.088713,30.3002088 L50.7809907,30.3002088 C51.4018677,30.3002088 52.2297036,29.7047182 52.2297036,28.9107307 L52.2297036,13.2294781 C52.2297036,12.6339875 51.4018677,11.84 50.7809907,11.84 L50.7809907,11.84 Z M21.9809907,33.6 L13.288713,33.6 C12.667836,33.6 11.84,34.1954906 11.84,34.9894781 L11.84,50.6707307 C11.84,51.2662213 12.667836,52.0602088 13.288713,52.0602088 L21.9809907,52.0602088 C22.8088267,52.0602088 23.4297036,51.2662213 23.4297036,50.6707307 L23.4297036,34.9894781 C23.4297036,34.1954906 22.8088267,33.6 21.9809907,33.6 L21.9809907,33.6 Z M36.3809907,33.6 L27.688713,33.6 C27.067836,33.6 26.24,34.1954906 26.24,34.9894781 L26.24,50.6707307 C26.24,51.2662213 27.067836,52.0602088 27.688713,52.0602088 L36.3809907,52.0602088 C37.0018677,52.0602088 37.8297036,51.2662213 37.8297036,50.6707307 L37.8297036,34.9894781 C37.8297036,34.1954906 37.0018677,33.6 36.3809907,33.6 L36.3809907,33.6 Z M50.7809907,33.6 L42.088713,33.6 C41.260877,33.6 40.64,34.1954906 40.64,34.9894781 L40.64,50.6707307 C40.64,51.2662213 41.260877,52.0602088 42.088713,52.0602088 L50.7809907,52.0602088 C51.4018677,52.0602088 52.2297036,51.2662213 52.2297036,50.6707307 L52.2297036,34.9894781 C52.2297036,34.1954906 51.4018677,33.6 50.7809907,33.6 L50.7809907,33.6 Z" id="Shape" sketch:type="MSShapeGroup"></path>
        </g>
    </g>
</svg>