<?xml version="1.0" encoding="utf-8"?>
<!-- Generator: Adobe Illustrator 20.0.0, SVG Export Plug-In . SVG Version: 6.00 Build 0)  -->
<svg version="1.1" id="Layer_3" xmlns="http://www.w3.org/2000/svg" xmlns:xlink="http://www.w3.org/1999/xlink" x="0px" y="0px"
	 viewBox="0 0 120 120" style="enable-background:new 0 0 120 120;" xml:space="preserve">
<style type="text/css">
	.st0{fill:#3ba755;}
</style>
<path class="st0" d="M108,0H12C5.4,0,0,5.4,0,12v96c0,6.6,5.4,12,12,12h96c6.6,0,12-5.4,12-12V12C120,5.4,114.6,0,108,0z M35.5,68.1
	v12.2c0,1.7,1.4,3.1,3.1,3.1c1.7,0,3.1,1.4,3.1,3.1s-1.4,3.1-3.1,3.1c-5.1,0-9.2-4.1-9.2-9.2V68.1c0-3.4-2.7-6.1-6.1-6.1
	c-1.7,0-3.1-1.4-3.1-3.1c0-1.7,1.4-3.1,3.1-3.1c3.4,0,6.1-2.7,6.1-6.1V37.5c0-5.1,4.1-9.2,9.2-9.2c1.7,0,3.1,1.4,3.1,3.1
	c0,1.7-1.4,3.1-3.1,3.1c-1.7,0-3.1,1.4-3.1,3.1v12.2c0,3.7-1.7,6.9-4.2,9.2C33.9,61.2,35.5,64.4,35.5,68.1z M63.8,74.8
	c0,2.1-1.7,3.8-3.8,3.8s-3.8-1.7-3.8-3.8V62.7c0-2.1,1.7-3.8,3.8-3.8s3.8,1.7,3.8,3.8V74.8z M60,54.5c-2.4,0-4.4-2-4.4-4.4
	c0-2.4,2-4.4,4.4-4.4c2.5,0,4.4,1.9,4.4,4.4C64.4,52.5,62.4,54.5,60,54.5z M96.7,62c-3.4,0-6.1,2.7-6.1,6.1v12.2
	c0,5.1-4.1,9.2-9.2,9.2c-1.7,0-3.1-1.4-3.1-3.1c0-1.7,1.4-3.1,3.1-3.1c1.7,0,3.1-1.4,3.1-3.1V68.1c0-3.7,1.7-6.9,4.2-9.2
	c-2.6-2.2-4.2-5.5-4.2-9.2V37.5c0-1.7-1.4-3.1-3.1-3.1c-1.7,0-3.1-1.4-3.1-3.1s1.4-3.1,3.1-3.1c5.1,0,9.2,4.1,9.2,9.2v12.2
	c0,3.4,2.7,6.1,6.1,6.1c1.7,0,3.1,1.4,3.1,3.1S98.4,62,96.7,62z"/>
</svg>
