<?xml version="1.0" encoding="UTF-8" standalone="no"?>
<svg width="200px" height="200px" viewBox="0 0 200 200" version="1.1" xmlns="http://www.w3.org/2000/svg" xmlns:xlink="http://www.w3.org/1999/xlink" xmlns:sketch="http://www.bohemiancoding.com/sketch/ns">
    <!-- Generator: Sketch 3.4.2 (15857) - http://www.bohemiancoding.com/sketch -->
    <title>metrics</title>
    <desc>Created with Sketch.</desc>
    <defs></defs>
    <g id="Page-2" stroke="none" stroke-width="1" fill="none" fill-rule="evenodd" sketch:type="MSPage">
        <g id="metrics" sketch:type="MSLayerGroup" fill="#dd7a01">
            <path d="M0,0 L200,0 L200,200 L0,200 L0,0 Z M149.440299,37.5 L50.5597015,37.5 C43.0970149,37.5 37.5,43.0970149 37.5,50.5597015 L37.5,149.440299 C37.5,156.902985 43.0970149,162.5 50.5597015,162.5 L149.440299,162.5 C156.902985,162.5 162.5,156.902985 162.5,149.440299 L162.5,50.5597015 C162.5,43.0970149 156.902985,37.5 149.440299,37.5 L149.440299,37.5 Z M72.9477612,135.447761 C72.9477612,138.246269 71.0820896,140.11194 68.2835821,140.11194 L64.5522388,140.11194 C61.7537313,140.11194 59.8880597,138.246269 59.8880597,135.447761 L59.8880597,111.19403 C59.8880597,108.395522 61.7537313,106.529851 64.5522388,106.529851 L68.2835821,106.529851 C71.0820896,106.529851 72.9477612,108.395522 72.9477612,111.19403 L72.9477612,135.447761 L72.9477612,135.447761 Z M95.3358209,135.447761 C95.3358209,138.246269 93.4701493,140.11194 90.6716418,140.11194 L86.9402985,140.11194 C84.141791,140.11194 82.2761194,138.246269 82.2761194,135.447761 L82.2761194,77.6119403 C82.2761194,74.8134328 84.141791,72.9477612 86.9402985,72.9477612 L90.6716418,72.9477612 C93.4701493,72.9477612 95.3358209,74.8134328 95.3358209,77.6119403 L95.3358209,135.447761 L95.3358209,135.447761 Z M117.723881,135.447761 C117.723881,138.246269 115.858209,140.11194 113.059701,140.11194 L109.328358,140.11194 C106.529851,140.11194 104.664179,138.246269 104.664179,135.447761 L104.664179,64.5522388 C104.664179,61.7537313 106.529851,59.8880597 109.328358,59.8880597 L113.059701,59.8880597 C115.858209,59.8880597 117.723881,61.7537313 117.723881,64.5522388 L117.723881,135.447761 L117.723881,135.447761 Z M140.11194,135.447761 C140.11194,138.246269 138.246269,140.11194 135.447761,140.11194 L131.716418,140.11194 C128.91791,140.11194 127.052239,138.246269 127.052239,135.447761 L127.052239,93.4701493 C127.052239,90.6716418 128.91791,88.8059701 131.716418,88.8059701 L135.447761,88.8059701 C138.246269,88.8059701 140.11194,90.6716418 140.11194,93.4701493 L140.11194,135.447761 L140.11194,135.447761 Z" id="Shape" sketch:type="MSShapeGroup"></path>
        </g>
    </g>
</svg>