<svg xmlns="http://www.w3.org/2000/svg" version="1.1" width="48" height="48" viewBox="0 0 48 48" xmlns:xlink="http://www.w3.org/1999/xlink">
  <title>Contact Request</title>
  <desc>Created with Sketch.</desc>
  <defs>
    <rect id="path-1" width="48" height="48" rx="4"/>
  </defs>
  <g stroke="none" stroke-width="1" fill="none" fill-rule="evenodd">
      <mask id="mask-2" fill="white">
        <use xlink:href="#path-1"/>
      </mask>
      <g mask="url(#mask-2)" fill="#056764">
        <rect width="48" height="48"/>
      </g>
      <g mask="url(#mask-2)">
            <path d="M23.6 24.3C23.2 24.4 23.1 24.9 23.3 25.1L25.9 27.8C26.2 28.1 26.2 28.5 25.9 28.8L24.9 29.8C24.7 30.1 24.2 30.1 24 29.8L17.6 23.4C17.3 23.1 17.3 22.7 17.6 22.4L24 16C24.2 15.7 24.7 15.7 24.9 16L25.9 17C26.2 17.3 26.2 17.7 25.9 18L23.3 20.7C23 21 23.5 21.5 23.5 21.5 29.6 21.7 34.3 25.7 35.7 31.1 37.3 29 38.3 26.5 38.3 23.7 38.2 16.4 31.9 10.6 24 10.6 16.1 10.6 9.8 16.4 9.8 23.6 9.8 25.8 10.5 28 11.5 29.9 11.7 30.2 11.7 30.5 11.6 30.9L9.8 35.9C9.6 36.4 10.1 36.8 10.6 36.7L15.7 34.7C15.9 34.6 16.3 34.7 16.7 34.9 18.8 36.1 21.3 36.8 24.1 36.8 27.6 36.7 30.9 35.5 33.3 33.5 32.8 28.5 28.6 24.5 23.6 24.3Z" fill="#FFF"/>
      </g>
  </g>
</svg>
