<?xml version="1.0" encoding="UTF-8" standalone="no"?>
<svg width="200px" height="200px" viewBox="0 0 200 200" version="1.1" xmlns="http://www.w3.org/2000/svg" xmlns:xlink="http://www.w3.org/1999/xlink" xmlns:sketch="http://www.bohemiancoding.com/sketch/ns">
    <!-- Generator: Sketch 3.4.2 (15857) - http://www.bohemiancoding.com/sketch -->
    <title>contact support and ask button</title>
    <desc>Created with Sketch.</desc>
    <defs></defs>
    <g id="Page-2" stroke="none" stroke-width="1" fill="none" fill-rule="evenodd" sketch:type="MSPage">
        <g id="fallback" sketch:type="MSLayerGroup" fill="#62B7ED">
            <path d="M0,0 L200,0 L200,200 L0,200 L0,0 Z M107.708509,47.4360485 L99.8331865,85.6876166 C99.8331865,86.8126628 100.958233,87.9377089 102.645802,87.9377089 L143.147462,87.9377089 C145.960078,87.9377089 147.647647,91.3128472 146.522601,93.5629395 L102.083279,166.128414 C100.39571,170.066076 94.770479,168.378507 94.770479,164.440845 L102.645802,119.439 C102.645802,118.313954 101.520756,118.876477 99.8331865,118.876477 L57.0814339,118.876477 C54.2688186,118.876477 52.0187264,114.376293 53.7062956,112.1262 L100.39571,45.7484793 C102.645802,42.373341 107.708509,43.4983871 107.708509,47.4360485 L107.708509,47.4360485 Z" id="Shape" sketch:type="MSShapeGroup"></path>
        </g>
    </g>
</svg>