<?xml version="1.0" encoding="UTF-8"?>
<svg width="120px" height="120px" viewBox="0 0 120 120" version="1.1" xmlns="http://www.w3.org/2000/svg" xmlns:xlink="http://www.w3.org/1999/xlink">
    <title>Icon</title>
    <g id="Icon" stroke="none" stroke-width="1" fill="none" fill-rule="evenodd">
        <path d="M120,108 C120,114.6 114.6,120 108,120 L12,120 C5.4,120 0,114.6 0,108 L0,12 C0,5.4 5.4,0 12,0 L108,0 C114.6,0 120,5.4 120,12 L120,108 L120,108 Z" id="Shape" fill="#6bbd6e"></path>
        <g id="orchestrator" transform="translate(20.500000, 20.500000)" fill="#FFFFFF" fill-rule="nonzero">
            <path d="M56.5709509,1.85638424 C56.3421351,1.1229283 55.804232,0.526086147 55.0984285,0.222514721 C54.3926249,-0.0810567044 53.5894066,-0.0610409663 52.8995993,0.277308278 C51.3600002,1.01421039 51.1757747,2.61960429 51.9126768,4.22499818 L63.9004952,34.1353287 C64.6242383,35.6880867 65.9927708,36.6092143 67.5192109,35.8723122 C68.211727,35.4852547 68.7150562,34.8309572 68.9115643,34.0623372 C69.1080723,33.2937173 68.9805385,32.4781312 68.5587692,31.8061916 L56.5709509,1.85638424 Z" id="Path"></path>
            <path d="M39.7932688,22.6080742 C46.5569775,22.6080742 51.9784717,28.7664704 51.9784717,36.372353 C51.9784717,43.9782355 46.5569775,50.1497907 39.7932688,50.1497907 C33.0295601,50.1497907 27.621225,43.9913945 27.621225,36.372353 C27.621225,28.7533114 33.0295601,22.6080742 39.7932688,22.6080742 Z" id="Path"></path>
            <path d="M11.6857167,53.1895119 L29.2397778,55.1633569 L33.2795805,78.9416091 L28.2791733,78.9416091 C26.8970679,78.9303192 25.6918231,77.9994829 25.3315648,76.6651079 L21.752326,63.7693209 L6.8037402,62.0849732 C4.47398138,61.7588348 2.41100462,60.410791 1.17680052,58.4080722 C-0.0574035788,56.4053534 -0.334263744,53.9565896 0.421641527,51.7288667 L8.1327958,29.2533522 C8.52172052,28.0847503 9.36373357,27.1213383 10.4697475,26.5794657 C11.5757614,26.0375931 12.8530774,25.9626761 14.0148538,26.3715385 C16.4312493,27.2560464 17.690847,29.9158482 16.8440315,32.3457093 L10.396138,51.1235542 C10.2363292,51.5704745 10.289702,52.065941 10.5410265,52.4685731 C10.792351,52.8712053 11.2140221,53.1367785 11.6857167,53.1895119 L11.6857167,53.1895119 Z" id="Path"></path>
            <path d="M51.5837027,78.9417074 L46.3201161,78.9417074 L50.267806,55.4396952 L66.8612626,58.5846881 C67.3747155,58.6713237 67.8976464,58.4970644 68.2564936,58.1197472 C68.6153407,57.7424299 68.7631571,57.2114183 68.650882,56.702956 L66.295427,46.1757829 C65.6991221,43.6676339 67.2296702,41.1460413 69.7299173,40.5174274 C70.9275186,40.2301076 72.1903057,40.4344113 73.2362128,41.0847034 C74.2821199,41.7349955 75.0240068,42.7770968 75.29616,43.9782355 L78.7174913,59.2031596 C79.3557237,61.7486939 78.6647987,64.4443635 76.8808051,66.369059 C75.0968115,68.2937545 72.4612406,69.1869384 69.8746659,68.7434102 L57.2025813,66.3484783 L54.570788,76.6651079 C54.2107359,78.0163348 52.9820329,78.9527472 51.5837027,78.9417074 L51.5837027,78.9417074 Z" id="Path"></path>
            <path d="M35.042882,58.0320116 C34.4812487,58.3858995 33.7705719,58.4025014 33.1930261,58.0752255 C32.6154804,57.7479496 32.2645219,57.1297544 32.279499,56.4660946 L32.279499,53.557963 C32.2645219,52.8943032 32.6154804,52.276108 33.1930261,51.9488321 C33.7705719,51.6215561 34.4812487,51.638158 35.042882,51.992046 L39.7932688,55.0186083 L35.042882,58.0320116 Z" id="Path"></path>
            <path d="M39.7932688,55.0186083 L44.5304967,51.992046 C45.0961434,51.6111901 45.8274784,51.5793311 46.4241017,51.9095551 C47.0207251,52.2397792 47.3820555,52.8764159 47.3596745,53.557963 L47.3596745,56.4660946 C47.368806,57.1302903 47.0145564,57.7464717 46.4359714,58.0727826 C45.8573864,58.3990936 45.1468038,58.3834575 44.5831326,58.0320116 L39.7932688,55.0186083 Z" id="Path"></path>
        </g>
    </g>
</svg>