<svg width="24" height="24" viewBox="0 0 24 24" fill="none" xmlns="http://www.w3.org/2000/svg">
<rect width="24" height="24" rx="4" fill="#014486"/>
<rect width="18" height="18" transform="translate(3 3)" fill="#014486"/>
<path fill-rule="evenodd" clip-rule="evenodd" d="M16.0846 13.3109L13.2461 12.3411C13.0384 12.2718 12.8653 12.064 12.8653 11.8215V8.04608C12.8653 7.45725 12.3807 7.00697 11.7923 7.00697H11.6884C11.1 7.00697 10.6153 7.49189 10.6153 8.04608V15.493C10.6153 16.1165 9.81919 16.3936 9.47303 15.8394L8.74611 14.3154C8.36534 13.6573 7.49996 13.4841 6.87688 13.9344L6.42688 14.2807L8.81534 19.9265C8.91919 20.169 9.1615 20.3075 9.43842 20.3075H15.7038C16.0153 20.3075 16.2577 20.0997 16.3269 19.8226L17.4346 15.874C17.7115 14.7656 17.0884 13.6919 16.0846 13.3109V13.3109ZM8.9538 10.9552V7.97631C9.02303 6.55612 10.1653 5.41304 11.5846 5.34376H11.8615C13.2807 5.41304 14.423 6.55612 14.4923 7.97631V10.9552C14.4923 11.1977 14.8038 11.3016 14.9769 11.1631C15.7384 10.3664 16.1884 9.29258 16.1884 8.1495C16.1884 5.58623 13.973 3.50791 11.3423 3.75038C9.33457 3.95821 7.67303 5.48232 7.36149 7.45672C7.1538 8.84227 7.56919 10.1932 8.5038 11.1631C8.64226 11.3016 8.9538 11.1977 8.9538 10.9552Z" fill="white"/>
</svg>
