<?xml version="1.0" encoding="UTF-8" standalone="no"?>
<svg width="200px" height="200px" viewBox="0 0 200 200" version="1.1" xmlns="http://www.w3.org/2000/svg" xmlns:xlink="http://www.w3.org/1999/xlink" xmlns:sketch="http://www.bohemiancoding.com/sketch/ns">
    <!-- Generator: Sketch 3.4.2 (15857) - http://www.bohemiancoding.com/sketch -->
    <title>create record action</title>
    <desc>Created with Sketch.</desc>
    <defs></defs>
    <g id="Page-2" stroke="none" stroke-width="1" fill="none" fill-rule="evenodd" sketch:type="MSPage">
        <g id="actions" sketch:type="MSLayerGroup" fill="#2A739E">
            <path d="M0,0 L200,0 L200,200 L0,200 L0,0 Z M98.2747033,46.2140949 C87.6656933,47.098179 78.8248517,55.9390207 77.9407675,66.5480307 C78.8248517,55.9390207 87.6656933,47.098179 98.2747033,46.2140949 L98.2747033,46.2140949 Z M120.376807,66.5480307 C119.492723,55.9390207 111.535966,47.098179 100.042872,46.2140949 C111.535966,47.098179 120.376807,55.9390207 120.376807,66.5480307 L120.376807,66.5480307 Z M132.753986,108.099986 L110.651882,100.143229 C108.883713,99.2591448 107.999629,98.3750607 107.999629,96.6068923 L107.999629,67.4321148 C107.999629,63.011694 104.463292,59.4753573 100.042872,59.4753573 L99.1587875,59.4753573 C94.7383666,59.4753573 91.20203,63.011694 91.20203,67.4321148 L91.20203,124.013501 C91.20203,129.318006 85.0134408,131.086175 82.3611883,126.665754 L77.0566833,115.17266 C73.5203467,109.868155 67.3317575,108.984071 62.0272525,112.520407 L59.375,115.17266 L77.0566833,158.492784 C77.9407675,160.260952 79.7089358,161.145036 82.3611883,161.145036 L130.101733,161.145036 C131.869902,161.145036 134.522154,159.376868 134.522154,157.6087 L143.362996,126.665754 C145.131164,118.708996 140.710743,110.752239 132.753986,108.099986 L132.753986,108.099986 Z M77.9407675,89.534219 L77.9407675,66.5480307 C78.8248517,55.9390207 87.6656933,47.098179 98.2747033,46.2140949 L100.042872,46.2140949 C111.535966,47.098179 119.492723,55.9390207 120.376807,66.5480307 L120.376807,89.534219 C120.376807,91.3023873 123.02906,92.1864715 123.913144,91.3023873 C130.101733,85.1137982 133.63807,76.2729565 133.63807,67.4321148 C133.63807,47.9822632 115.956387,32.0687482 96.506535,33.8369165 C80.59302,35.6050849 68.2158417,47.098179 65.5635892,62.1276098 C63.7954208,72.7366198 67.3317575,83.3456298 74.4044308,91.3023873 C76.1725992,92.1864715 77.9407675,91.3023873 77.9407675,89.534219 L77.9407675,89.534219 Z" id="Shape" sketch:type="MSShapeGroup"></path>
        </g>
    </g>
</svg>