<?xml version="1.0" encoding="UTF-8" standalone="no"?>
<svg width="200px" height="200px" viewBox="0 0 200 200" version="1.1" xmlns="http://www.w3.org/2000/svg" xmlns:xlink="http://www.w3.org/1999/xlink" xmlns:sketch="http://www.bohemiancoding.com/sketch/ns">
    <!-- Generator: Sketch 3.4.2 (15857) - http://www.bohemiancoding.com/sketch -->
    <title>create-case-form</title>
    <desc>Created with Sketch.</desc>
    <defs></defs>
    <g id="Page-2" stroke="none" stroke-width="1" fill="none" fill-rule="evenodd" sketch:type="MSPage">
        <g id="create" sketch:type="MSLayerGroup" fill="#F2CF5B">
            <path d="M0,0 L200,0 L200,200 L0,200 L0,0 Z M116.889077,73.9695946 L138.285473,73.9695946 C139.974662,73.9695946 141.100788,72.2804054 141.100788,71.1542793 C141.100788,70.0281532 140.537725,69.4650901 139.974662,68.902027 L113.510698,42.4380631 C112.947635,41.875 112.384572,41.875 111.821509,41.875 C110.13232,41.875 109.006194,43.0011261 109.006194,44.6903153 L109.006194,65.5236486 C109.006194,70.0281532 112.384572,73.9695946 116.889077,73.9695946 L116.889077,73.9695946 Z M163.623311,100.996622 L161.371059,98.1813063 C160.244932,97.0551802 157.429617,97.0551802 155.740428,98.1813063 L124.771959,129.149775 L124.771959,136.469595 C124.771959,137.032658 124.771959,137.595721 125.335023,137.595721 L133.217905,137.595721 L163.623311,106.627252 C165.875563,104.938063 165.875563,102.122748 163.623311,100.996622 L163.623311,100.996622 Z M138.848536,149.420045 L120.267455,149.420045 C116.326014,149.420045 112.947635,146.041667 112.947635,142.100225 L112.947635,128.023649 C112.947635,125.771396 113.510698,123.519144 115.199887,122.393018 L139.974662,97.6182432 C140.537725,97.0551802 141.100788,95.9290541 141.100788,94.8029279 L141.100788,89.7353604 C141.100788,87.4831081 139.411599,85.7939189 137.159347,85.7939189 L109.006194,85.7939189 C102.249437,85.7939189 96.6188063,80.1632883 96.6188063,73.9695946 L96.6188063,45.8164414 C96.6188063,43.5641892 94.9296171,41.875 92.6773649,41.875 L52.1368243,41.875 C45.9431306,41.875 40.3125,47.5056306 40.3125,53.6993243 L40.3125,149.420045 C40.3125,155.613739 45.9431306,161.244369 52.1368243,161.244369 L128.713401,161.244369 C134.344032,161.244369 139.974662,157.302928 140.537725,151.672297 C141.100788,150.546171 139.974662,149.420045 138.848536,149.420045 L138.848536,149.420045 Z M56.6413288,77.911036 C56.6413288,75.6587838 58.330518,73.9695946 60.5827703,73.9695946 L76.348536,73.9695946 C79.1638514,73.9695946 80.2899775,75.6587838 80.2899775,77.911036 L80.2899775,81.2894144 C80.2899775,83.5416667 78.6007883,85.2308559 76.348536,85.2308559 L60.5827703,85.2308559 C58.330518,85.2308559 56.6413288,83.5416667 56.6413288,81.2894144 L56.6413288,77.911036 L56.6413288,77.911036 Z M96.6188063,129.149775 C96.6188063,131.402027 94.9296171,133.091216 92.6773649,133.091216 L60.5827703,133.091216 C58.330518,133.091216 56.6413288,131.402027 56.6413288,129.149775 L56.6413288,125.208333 C56.6413288,123.519144 58.330518,121.829955 60.5827703,121.829955 L92.6773649,121.829955 C94.9296171,121.829955 96.6188063,123.519144 96.6188063,125.208333 L96.6188063,129.149775 L96.6188063,129.149775 Z M105.064752,105.501126 C105.064752,107.753378 102.8125,109.442568 101.123311,109.442568 L60.5827703,109.442568 C58.330518,109.442568 56.6413288,107.753378 56.6413288,105.501126 L56.6413288,101.559685 C56.6413288,99.3074324 58.330518,97.6182432 60.5827703,97.6182432 L100.560248,97.6182432 C102.8125,97.6182432 104.501689,99.3074324 104.501689,101.559685 L104.501689,105.501126 L105.064752,105.501126 Z" id="Shape" sketch:type="MSShapeGroup"></path>
        </g>
    </g>
</svg>