<?xml version="1.0" encoding="utf-8"?>
<!-- Generator: Adobe Illustrator 21.1.0, SVG Export Plug-In . SVG Version: 6.00 Build 0)  -->
<svg version="1.1" id="Layer_1" xmlns:sketch="http://www.bohemiancoding.com/sketch/ns"
	 xmlns="http://www.w3.org/2000/svg" xmlns:xlink="http://www.w3.org/1999/xlink" x="0px" y="0px" viewBox="0 0 120 120"
	 style="enable-background:new 0 0 120 120;" xml:space="preserve">
<style type="text/css">
	.st0{fill:#F88962;}
	.st1{fill:#FFFFFF;}
</style>
<title>icon_activity_timeline</title>
<desc>Created with Sketch.</desc>
<g id="Page-1" sketch:type="MSPage">
	<g id="icon_x5F_lightning_x5F_component_x5F_w_x5F_tile-_x2B_-Shape-_x2B_-Path-1-Copy" sketch:type="MSLayerGroup">
		<rect class="st0" width="120" height="120"/>
		<g id="icon_x5F_lightning_x5F_component_x5F_w_x5F_tile-_x2B_-Path-1" sketch:type="MSShapeGroup">
			<path id="Shape-Copy-2" class="st1" d="M44.5,36.1h31c1.8,0,3-1.1,3-2.8v-5.6c0-4.4-3.6-7.8-8.4-7.8H49.9c-4.8,0-8.4,3.3-8.4,7.8
				v5.6C41.5,35,42.7,36.1,44.5,36.1L44.5,36.1z M91.6,26.7h-3c-0.6,0-1.2,0.6-1.2,1.1v5.6c0,6.1-5.4,10.6-11.9,10.6h-31
				c-6.6,0-11.9-4.4-11.9-10.6v-5.6c0-0.6-0.6-1.1-1.2-1.1h-3c-4.8,0-8.4,3.3-8.4,7.8v57.8c0,4.4,3.6,7.8,8.4,7.8h63.3
				c4.8,0,8.4-3.3,8.4-7.8V34.4C100,30,96.4,26.7,91.6,26.7z M50,72c0-2.2,1.8-4,4-4h28c2.2,0,4,1.8,4,4v1c0,2.2-1.8,4-4,4H54
				c-2.2,0-4-1.8-4-4V72z M35,72c0-2.2,1.8-4,4-4h1c2.2,0,4,1.8,4,4v1c0,2.2-1.8,4-4,4h-1c-2.2,0-4-1.8-4-4V72z M50,56
				c0-2.2,1.8-4,4-4h28c2.2,0,4,1.8,4,4v1c0,2.2-1.8,4-4,4H54c-2.2,0-4-1.8-4-4V56z M35,56c0-2.2,1.8-4,4-4h1c2.2,0,4,1.8,4,4v1
				c0,2.2-1.8,4-4,4h-1c-2.2,0-4-1.8-4-4V56z M50,88c0-2.2,1.8-4,4-4h28c2.2,0,4,1.8,4,4v1c0,2.2-1.8,4-4,4H54c-2.2,0-4-1.8-4-4V88z
				 M35,88c0-2.2,1.8-4,4-4h1c2.2,0,4,1.8,4,4v1c0,2.2-1.8,4-4,4h-1c-2.2,0-4-1.8-4-4V88z"/>
		</g>
	</g>
</g>
</svg>
