<?xml version="1.0" encoding="utf-8"?>
<!-- Generator: Adobe Illustrator 20.0.0, SVG Export Plug-In . SVG Version: 6.00 Build 0)  -->
<svg version="1.1" id="Layer_1" xmlns:sketch="http://www.bohemiancoding.com/sketch/ns"
	 xmlns="http://www.w3.org/2000/svg" xmlns:xlink="http://www.w3.org/1999/xlink" x="0px" y="0px" viewBox="0 0 200 200"
	 style="enable-background:new 0 0 200 200;" xml:space="preserve">
<style type="text/css">
	.st0{fill:#3ba755;}
</style>
<title>home-page-tabs</title>
<desc>Created with Sketch.</desc>
<path class="st0" d="M0,0v200h200V0H0z M121.4,139.5c-22.4,0-40.5-18.1-40.5-40.5c0-9.1,3.1-17.4,8.1-24.1
	c-3.3-1.4-6.9-2.1-10.5-2.1C64,72.8,52.4,84.5,52.4,99s11.7,26.2,26.2,26.2h0.2c3.1,4.8,6.9,9.1,11.2,12.6
	c-3.6,1.2-7.4,1.7-11.4,1.7c-22.4,0-40.5-18.1-40.5-40.5c0-22.4,18.1-40.5,40.5-40.5c22.4,0,40.5,18.1,40.5,40.5
	c0,4.3-0.7,8.6-1.9,12.4c-0.2,1.2-0.7,2.1-1.2,3.3c-1.2,2.9-2.9,5.7-4.8,8.3c3.1,1.4,6.7,2.1,10.2,2.1c14.5,0,26.2-11.7,26.2-26.2
	S136,72.8,121.4,72.8h-0.2c-3.1-4.8-6.9-9.1-11.2-12.6c3.6-1.2,7.4-1.7,11.4-1.7c22.4,0,40.5,18.1,40.5,40.5
	S143.8,139.5,121.4,139.5z"/>
</svg>
