<?xml version="1.0" encoding="UTF-8" standalone="no"?>
<svg width="200px" height="200px" viewBox="0 0 200 200" version="1.1" xmlns="http://www.w3.org/2000/svg" xmlns:xlink="http://www.w3.org/1999/xlink" xmlns:sketch="http://www.bohemiancoding.com/sketch/ns">
    <!-- Generator: Sketch 3.4.2 (15857) - http://www.bohemiancoding.com/sketch -->
    <title>feed</title>
    <desc>Created with Sketch.</desc>
    <defs></defs>
    <g id="Page-2" stroke="none" stroke-width="1" fill="none" fill-rule="evenodd" sketch:type="MSPage">
        <g id="comments" sketch:type="MSLayerGroup" fill="#62B7ED">
            <path d="M0,0 L200,0 L200,200 L0,200 L0,0 Z M155.508932,114.636588 C154.946874,113.512473 154.946874,112.388359 155.508932,111.826301 C158.881275,105.643671 161.129504,98.8989838 161.129504,91.5922391 C161.129504,68.5478904 141.457499,50 116.726979,50 C105.485833,50 95.368802,54.4964583 87.5,61.2411457 C113.916692,64.0514321 135.274869,85.9716663 135.274869,112.388359 C135.274869,118.570989 133.588697,125.315676 131.340468,130.936249 C134.150755,129.812135 136.961041,128.68802 139.771328,127.001848 C140.895442,126.439791 142.019557,126.439791 142.581614,127.001848 L158.881275,133.184478 C160.00539,133.746536 161.691562,132.060364 161.129504,130.936249 L155.508932,114.636588 L155.508932,114.636588 Z M82.0141669,68.75 C57.2836463,68.75 37.6116413,87.2978904 37.6116413,110.342239 C37.6116413,117.648984 39.8598705,124.393671 43.2322142,130.014244 C43.7942715,131.138359 43.7942715,132.262473 43.2322142,133.386588 L37.6116413,149.124192 C37.049584,150.810364 38.7357559,151.934478 39.8598705,151.372421 L56.1595317,145.189791 C56.721589,145.189791 57.8457036,145.189791 58.9698182,145.751848 C65.7145056,149.686249 73.5833076,151.372421 82.0141669,151.372421 C106.18263,151.372421 125.854635,132.824531 125.854635,109.780182 C125.854635,87.2978904 106.18263,68.75 82.0141669,68.75 L82.0141669,68.75 Z" id="Shape" sketch:type="MSShapeGroup"></path>
        </g>
    </g>
</svg>