<?xml version="1.0" encoding="utf-8"?>
<!-- Generator: Adobe Illustrator 20.0.0, SVG Export Plug-In . SVG Version: 6.00 Build 0)  -->
<svg version="1.1" id="Layer_1" xmlns:sketch="http://www.bohemiancoding.com/sketch/ns"
     xmlns="http://www.w3.org/2000/svg" xmlns:xlink="http://www.w3.org/1999/xlink" x="0px" y="0px" viewBox="0 0 200 200"
     style="enable-background:new 0 0 200 200;" xml:space="preserve">
<style type="text/css">
    .st0{fill:#56AADF;}
</style>
<title>new message notification</title>
<desc>Direct Message Notification Icon.</desc>
<path class="st0" d="M0,0v200h200V0H0z M114.7,140.6c-1.1,5.7-6.3,10.1-12.5,10.1c-6.1,0-11.4-4.2-12.5-10.1
    c-0.2-1.3,0.8-2.5,2.1-2.5h20.7C113.9,138.1,114.9,139.3,114.7,140.6z M153,126.4c0,1.7-1.5,3.2-3.2,3.2H54.7c-1.7,0-3.2-1.5-3.2-3
    v-3.2c0-4.6,3.8-8.7,8.5-8.7H61c4,0,7.4-3.2,7.4-7.2V84.2c0-18.4,13.9-34,32.1-34.9C120,48.4,136,63.9,136,83.1v24.3
    c0,4,3.4,7.4,7.4,7.4h1.1c4.6,0,8.5,3.8,8.5,8.5V126.4z"/>
</svg>