<?xml version="1.0" encoding="UTF-8" standalone="no"?>
<svg width="200px" height="200px" viewBox="0 0 200 200" version="1.1" xmlns="http://www.w3.org/2000/svg" xmlns:xlink="http://www.w3.org/1999/xlink" xmlns:sketch="http://www.bohemiancoding.com/sketch/ns">
    <!-- Generator: Sketch 3.4.2 (15857) - http://www.bohemiancoding.com/sketch -->
    <title>summary</title>
    <desc>Created with Sketch.</desc>
    <defs></defs>
    <g id="Page-2" stroke="none" stroke-width="1" fill="none" fill-rule="evenodd" sketch:type="MSPage">
        <g id="summary" sketch:type="MSLayerGroup" fill="#6bbd6e">
            <path d="M0,0 L200,0 L200,200 L0,200 L0,0 Z M159.027778,50 L60.0694444,50 C58.3333333,50 56.5972222,50.9375 56.5972222,53.75 L56.5972222,132.5 C56.5972222,135.3125 53.9930556,138.125 51.3888889,138.125 C48.7847222,137.1875 47.0486111,135.3125 47.0486111,132.5 L47.0486111,75.3125 C47.0486111,74.375 46.1805556,73.4375 44.4444444,73.4375 L40.9722222,73.4375 C39.2361111,73.4375 37.5,74.375 37.5,77.1875 L37.5,142.8125 C37.5,148.4375 41.8402778,153.125 47.0486111,153.125 L152.951389,153.125 C158.159722,153.125 162.5,148.4375 162.5,142.8125 L162.5,53.75 C162.5,50.9375 160.763889,50 159.027778,50 L159.027778,50 Z M105.208333,125 C105.208333,126.875 103.472222,127.8125 102.604167,127.8125 L73.9583333,127.8125 C72.2222222,127.8125 71.3541667,126.875 71.3541667,125 L71.3541667,119.375 C71.3541667,118.4375 72.2222222,117.5 73.9583333,117.5 L102.604167,117.5 C103.472222,117.5 105.208333,118.4375 105.208333,119.375 L105.208333,125 L105.208333,125 Z M105.208333,104.375 C105.208333,106.25 103.472222,107.1875 102.604167,107.1875 L73.9583333,107.1875 C72.2222222,107.1875 71.3541667,106.25 71.3541667,104.375 L71.3541667,98.75 C71.3541667,97.8125 72.2222222,95.9375 73.9583333,95.9375 L102.604167,95.9375 C103.472222,95.9375 105.208333,97.8125 105.208333,98.75 L105.208333,104.375 L105.208333,104.375 Z M147.743056,125 C147.743056,126.875 146.875,127.8125 146.006944,127.8125 L116.493056,127.8125 C115.625,127.8125 114.756944,126.875 114.756944,125 L114.756944,119.375 C114.756944,118.4375 115.625,117.5 116.493056,117.5 L146.006944,117.5 C146.875,117.5 147.743056,118.4375 147.743056,119.375 L147.743056,125 L147.743056,125 Z M147.743056,104.375 C147.743056,106.25 146.875,107.1875 146.006944,107.1875 L116.493056,107.1875 C115.625,107.1875 114.756944,106.25 114.756944,104.375 L114.756944,98.75 C114.756944,97.8125 115.625,95.9375 116.493056,95.9375 L146.006944,95.9375 C146.875,95.9375 147.743056,97.8125 147.743056,98.75 L147.743056,104.375 L147.743056,104.375 Z M147.743056,83.75 C147.743056,84.6875 146.875,85.625 146.006944,85.625 L73.9583333,85.625 C72.2222222,85.625 71.3541667,84.6875 71.3541667,83.75 L71.3541667,67.8125 C71.3541667,65.9375 72.2222222,65 73.9583333,65 L146.006944,65 C146.875,65 147.743056,65.9375 147.743056,67.8125 L147.743056,83.75 L147.743056,83.75 Z" id="Shape" sketch:type="MSShapeGroup"></path>
        </g>
    </g>
</svg>