<?xml version="1.0" encoding="utf-8"?>
<!-- Generator: Adobe Illustrator 22.0.1, SVG Export Plug-In . SVG Version: 6.00 Build 0)  -->
<svg version="1.1" id="Layer_1" xmlns:sketch="http://www.bohemiancoding.com/sketch/ns"
	 xmlns="http://www.w3.org/2000/svg" xmlns:xlink="http://www.w3.org/1999/xlink" x="0px" y="0px" viewBox="0 0 200 200"
	 style="enable-background:new 0 0 200 200;" xml:space="preserve">
<style type="text/css">
	.st0{fill:#F2CF5B;}
	.st1{fill:#FFFFFF;}
</style>
<title>recommendation_leaderboard</title>
<desc>Created with Sketch.</desc>
<g id="Page-2" sketch:type="MSPage">
	<g id="richtextnumberedlist" sketch:type="MSLayerGroup">
		<path id="Shape" sketch:type="MSShapeGroup" class="st0" d="M0,0h200v200H0V0z M162.5,50.5v7.9c0,2.3-1.7,3.9-3.9,3.9H88.2
			c-1.7,0-3.9-1.7-3.9-3.9v-7.9c0-2.3,2.3-3.9,3.9-3.9h70.4C160.8,46.6,162.5,48.3,162.5,50.5L162.5,50.5z M88.2,88.2h46.7
			c2.3,0,3.9-1.7,3.9-3.9v-7.9c0-2.3-1.7-3.9-3.9-3.9H88.2c-1.7,0-3.9,1.7-3.9,3.9v7.9C84.2,86.5,86.5,88.2,88.2,88.2L88.2,88.2z
			 M158.6,111.3H88.2c-1.7,0-3.9,2.3-3.9,3.9v7.9c0,2.3,2.3,3.9,3.9,3.9h70.4c2.3,0,3.9-1.7,3.9-3.9v-7.9
			C162.5,113.6,160.8,111.3,158.6,111.3L158.6,111.3z M134.9,137.8H88.2c-1.7,0-3.9,1.7-3.9,3.9v7.3c0,2.3,2.3,3.9,3.9,3.9h46.7
			c2.3,0,3.9-1.7,3.9-3.9v-7.3C138.9,139.5,137.2,137.8,134.9,137.8L134.9,137.8z M41.4,54.4h6.8v32.7c0,1.7,1.7,3.9,3.9,3.9h2.3
			c2.3,0,3.9-2.3,3.9-3.9V49.4c0-2.8-2.3-5.6-5.1-5.6H41.4c-2.3,0-3.9,2.3-3.9,3.9v2.8C37.5,52.8,39.2,54.4,41.4,54.4L41.4,54.4z
			 M63.4,106.2h-22c-2.3,0-3.9,1.7-3.9,3.9v2.8c0,1.7,1.7,3.9,3.9,3.9h16.9v10.1H42.6c-2.8,0-5.1,2.3-5.1,5.1V153
			c0,2.8,2.3,5.6,5.1,5.6h22.5c1.7,0,3.9-2.3,3.9-3.9v-2.8c0-2.3-2.3-3.9-3.9-3.9H48.2v-10.1h15.2c2.8,0,5.6-2.8,5.6-5.6v-20.8
			C69,108.5,66.2,106.2,63.4,106.2L63.4,106.2z"/>
		<path class="st1" d="M162.5,50.5v7.9c0,2.3-1.7,3.9-3.9,3.9H88.2c-1.7,0-3.9-1.7-3.9-3.9v-7.9c0-2.3,2.3-3.9,3.9-3.9h70.4
			C160.8,46.6,162.5,48.3,162.5,50.5L162.5,50.5z"/>
	</g>
</g>
</svg>
