<?xml version="1.0" encoding="UTF-8"?>
<svg width="200px" height="200px" viewBox="0 0 200 200" version="1.1" xmlns="http://www.w3.org/2000/svg" xmlns:xlink="http://www.w3.org/1999/xlink">
    <!-- Generator: Sketch 47.1 (45422) - http://www.bohemiancoding.com/sketch -->
    <title>Calendar icon</title>
    <desc>Created with Sketch.</desc>
    <defs>
        <path d="M123.571429,57.1428571 L6.42857143,57.1428571 C4.14285714,57.1428571 2.14285714,59.1428571 2.14285714,61.4285714 L2.14285714,131.428571 C2.14285714,137.714286 7.28571429,142.857143 13.5714286,142.857143 L116.428571,142.857143 C122.714286,142.857143 127.857143,137.714286 127.857143,131.428571 L127.857143,61.4285714 C127.857143,59.1428571 125.857143,57.1428571 123.571429,57.1428571 Z M45,120 C45,121.714286 43.8571429,122.857143 42.1428571,122.857143 L30.7142857,122.857143 C29,122.857143 27.8571429,121.714286 27.8571429,120 L27.8571429,108.571429 C27.8571429,106.857143 29,105.714286 30.7142857,105.714286 L42.1428571,105.714286 C43.8571429,105.714286 45,106.857143 45,108.571429 L45,120 Z M45,91.4285714 C45,93.1428571 43.8571429,94.2857143 42.1428571,94.2857143 L30.7142857,94.2857143 C29,94.2857143 27.8571429,93.1428571 27.8571429,91.4285714 L27.8571429,80 C27.8571429,78.2857143 29,77.1428571 30.7142857,77.1428571 L42.1428571,77.1428571 C43.8571429,77.1428571 45,78.2857143 45,80 L45,91.4285714 Z M73.5714286,120 C73.5714286,121.714286 72.4285714,122.857143 70.7142857,122.857143 L59.2857143,122.857143 C57.5714286,122.857143 56.4285714,121.714286 56.4285714,120 L56.4285714,108.571429 C56.4285714,106.857143 57.5714286,105.714286 59.2857143,105.714286 L70.7142857,105.714286 C72.4285714,105.714286 73.5714286,106.857143 73.5714286,108.571429 L73.5714286,120 Z M73.5714286,91.4285714 C73.5714286,93.1428571 72.4285714,94.2857143 70.7142857,94.2857143 L59.2857143,94.2857143 C57.5714286,94.2857143 56.4285714,93.1428571 56.4285714,91.4285714 L56.4285714,80 C56.4285714,78.2857143 57.5714286,77.1428571 59.2857143,77.1428571 L70.7142857,77.1428571 C72.4285714,77.1428571 73.5714286,78.2857143 73.5714286,80 L73.5714286,91.4285714 Z M102.142857,120 C102.142857,121.714286 101,122.857143 99.2857143,122.857143 L87.8571429,122.857143 C86.1428571,122.857143 85,121.714286 85,120 L85,108.571429 C85,106.857143 86.1428571,105.714286 87.8571429,105.714286 L99.2857143,105.714286 C101,105.714286 102.142857,106.857143 102.142857,108.571429 L102.142857,120 Z M102.142857,91.4285714 C102.142857,93.1428571 101,94.2857143 99.2857143,94.2857143 L87.8571429,94.2857143 C86.1428571,94.2857143 85,93.1428571 85,91.4285714 L85,80 C85,78.2857143 86.1428571,77.1428571 87.8571429,77.1428571 L99.2857143,77.1428571 C101,77.1428571 102.142857,78.2857143 102.142857,80 L102.142857,91.4285714 Z M116.428571,20 L102.142857,20 L102.142857,14.2857143 C102.142857,9.71428571 98.4285714,5.71428571 93.5714286,5.71428571 C89,5.71428571 85,9.42857143 85,14.2857143 L85,20 L45,20 L45,14.2857143 C45,9.71428571 41.2857143,5.71428571 36.4285714,5.71428571 C31.8571429,5.71428571 27.8571429,9.42857143 27.8571429,14.2857143 L27.8571429,20 L13.5714286,20 C7.28571429,20 2.14285714,25.1428571 2.14285714,31.4285714 L2.14285714,38.5714286 C2.14285714,40.8571429 4.14285714,42.8571429 6.42857143,42.8571429 L123.571429,42.8571429 C125.857143,42.8571429 127.857143,40.8571429 127.857143,38.5714286 L127.857143,31.4285714 C127.857143,25.1428571 122.714286,20 116.428571,20 Z" id="path-1"></path>
    </defs>
    <g id="Page-1" stroke="none" stroke-width="1" fill="none" fill-rule="evenodd">
        <g id="Calendar-icon">
            <rect id="Rectangle" fill="#6BBD6E" x="0" y="0" width="200" height="200" rx="3"></rect>
            <g id="Icons/Utility/event" transform="translate(35.000000, 26.000000)">
                <mask id="mask-2" fill="white">
                    <use xlink:href="#path-1"></use>
                </mask>
                <use id="Mask" fill="#000000" xlink:href="#path-1"></use>
                <g id="↳-🎨Color" mask="url(#mask-2)" fill="#FFFFFF">
                    <g transform="translate(-9.285714, 0.000000)" id="color">
                        <rect x="0" y="0" width="148.571429" height="148.571429"></rect>
                    </g>
                </g>
            </g>
        </g>
    </g>
</svg>