<?xml version="1.0" encoding="UTF-8"?>
<svg width="200px" height="200px" viewBox="0 0 200 200" version="1.1" xmlns="http://www.w3.org/2000/svg" xmlns:xlink="http://www.w3.org/1999/xlink">
    <!-- Generator: Sketch 51 (57462) - http://www.bohemiancoding.com/sketch -->
    <title>dynamicCollection</title>
    <desc>Created with Sketch.</desc>
    <defs></defs>
    <g id="Other" stroke="none" stroke-width="1" fill="none" fill-rule="evenodd">
        <g id="CMS-Collection" fill-rule="nonzero">
            <g id="dynamicCollection">
                <polygon id="Shape" fill="#3ba755" points="0 0 200 0 200 200 0 200"></polygon>
                <g id="tile_card_list" transform="translate(37.000000, 37.000000)" fill="#FFFFFF">
                    <path d="M30.0681818,0 L4.29545455,0 C2.00454545,0 0,2.00454545 0,4.29545455 L0,52.9772727 C0,55.2681818 2.00454545,57.2727273 4.29545455,57.2727273 L30.0681818,57.2727273 C32.3590909,57.2727273 34.3636364,55.2681818 34.3636364,52.9772727 L34.3636364,4.29545455 C34.3636364,2.00454545 32.3590909,0 30.0681818,0 Z M75.8863636,0 L50.1136364,0 C47.8227273,0 45.8181818,2.00454545 45.8181818,4.29545455 L45.8181818,52.9772727 C45.8181818,55.2681818 47.8227273,57.2727273 50.1136364,57.2727273 L75.8863636,57.2727273 C78.1772727,57.2727273 80.1818182,55.2681818 80.1818182,52.9772727 L80.1818182,4.29545455 C80.1818182,2.00454545 78.1772727,0 75.8863636,0 Z M121.704545,0 L95.9318182,0 C93.6409091,0 91.6363636,2.00454545 91.6363636,4.29545455 L91.6363636,52.9772727 C91.6363636,55.2681818 93.6409091,57.2727273 95.9318182,57.2727273 L121.704545,57.2727273 C123.995455,57.2727273 126,55.2681818 126,52.9772727 L126,4.29545455 C126,2.00454545 123.995455,0 121.704545,0 Z M30.0681818,68.7272727 L4.29545455,68.7272727 C2.00454545,68.7272727 0,70.7318182 0,73.0227273 L0,121.704545 C0,123.995455 2.00454545,126 4.29545455,126 L30.0681818,126 C32.3590909,126 34.3636364,123.995455 34.3636364,121.704545 L34.3636364,73.0227273 C34.3636364,70.7318182 32.3590909,68.7272727 30.0681818,68.7272727 Z M75.8863636,68.7272727 L50.1136364,68.7272727 C47.8227273,68.7272727 45.8181818,70.7318182 45.8181818,73.0227273 L45.8181818,121.704545 C45.8181818,123.995455 47.8227273,126 50.1136364,126 L75.8863636,126 C78.1772727,126 80.1818182,123.995455 80.1818182,121.704545 L80.1818182,73.0227273 C80.1818182,70.7318182 78.1772727,68.7272727 75.8863636,68.7272727 Z M121.704545,68.7272727 L95.9318182,68.7272727 C93.6409091,68.7272727 91.6363636,70.7318182 91.6363636,73.0227273 L91.6363636,121.704545 C91.6363636,123.995455 93.6409091,126 95.9318182,126 L121.704545,126 C123.995455,126 126,123.995455 126,121.704545 L126,73.0227273 C126,70.7318182 123.995455,68.7272727 121.704545,68.7272727 Z" id="Shape"></path>
                </g>
            </g>
        </g>
    </g>
</svg>