<?xml version="1.0" encoding="utf-8"?>
<!-- Generator: Adobe Illustrator 21.1.0, SVG Export Plug-In . SVG Version: 6.00 Build 0)  -->
<svg version="1.1" id="Layer_1" xmlns="http://www.w3.org/2000/svg" xmlns:xlink="http://www.w3.org/1999/xlink" x="0px" y="0px"
	 width="200px" height="200px" viewBox="0 0 200 200" enable-background="new 0 0 200 200" xml:space="preserve">
    <path fill="#45C65A" d="M188,200H12c-6.6,0-12-5.4-12-12V12C0,5.4,5.4,0,12,0h176c6.6,0,12,5.4,12,12v176
        C200,194.6,194.6,200,188,200z"/>
    <g id="Page-1">
        <g id="Desktop-HD" transform="translate(-382.000000, -442.000000)">
            <g id="Group-3" transform="translate(379.000000, 427.000000)">
                <g id="Group-5" transform="translate(3.000000, 15.000000)">
                    <g id="Group-4">
                        <rect id="Rectangle-3" x="40" y="82.4" fill="#FFFFFF" width="24.7" height="14.1"/>
                        <rect id="Rectangle-3_1_" x="71.8" y="82.4" fill="#FFFFFF" width="24.7" height="14.1"/>
                        <rect id="Rectangle-3_2_" x="103.5" y="82.4" fill="#FFFFFF" width="24.7" height="14.1"/>
                        <rect id="Rectangle-3_3_" x="135.3" y="82.4" fill="#FFFFFF" width="24.7" height="14.1"/>
                    </g>
                    <g id="Group-4_1_" transform="translate(0.000000, 6.000000)">
                        <rect id="Rectangle-3_4_" x="40" y="97.5" fill="#FFFFFF" width="24.7" height="14.1"/>
                        <rect id="Rectangle-3_5_" x="71.8" y="97.5" fill="#FFFFFF" width="24.7" height="14.1"/>
                        <rect id="Rectangle-3_6_" x="103.5" y="97.5" fill="#FFFFFF" width="24.7" height="14.1"/>
                        <rect id="Rectangle-3_7_" x="135.3" y="97.5" fill="#FFFFFF" width="24.7" height="14.1"/>
                    </g>
                </g>
            </g>
        </g>
    </g>
</svg>