<?xml version="1.0" encoding="utf-8"?>
<!-- Generator: Adobe Illustrator 20.0.0, SVG Export Plug-In . SVG Version: 6.00 Build 0)  -->
<svg version="1.1" id="Layer_1" xmlns:sketch="http://www.bohemiancoding.com/sketch/ns"
     xmlns="http://www.w3.org/2000/svg" xmlns:xlink="http://www.w3.org/1999/xlink" x="0px" y="0px" viewBox="0 0 200 200"
     style="enable-background:new 0 0 200 200;" xml:space="preserve">
<style type="text/css">
    .st0{fill:#56AADF;}
</style>
<title>new message button</title>
<desc>Launch Direct Message button icon.</desc>
<path class="st0" d="M0,0v200h200V0H0z M54.9,61.5l94.6-0.2c3.4,0,3.5,2.7,2.7,4.4L104.4,110c-1.4,1.2-3.2,1.2-4.6,0L52.2,65.9
    C50.4,63.8,52.4,61.5,54.9,61.5z M142.8,138.7H61.7c-5.6,0-10.1-4.6-10.1-10.1V84.6c0-2.2,2.5-3.4,4.2-1.9l37.4,34.5
    c2.5,2.4,5.7,3.5,9.1,3.5c3.4,0,6.6-1.2,9.1-3.5l37.2-34.5c1.5-1.5,4.2-0.3,4.2,1.9c0,13.5,0,43.9,0.2,43.9
    C153,134.1,148.4,138.7,142.8,138.7z"/>
</svg>
