<?xml version="1.0" encoding="UTF-8"?>
<svg width="120px" height="120px" viewBox="0 0 120 120" version="1.1" xmlns="http://www.w3.org/2000/svg" xmlns:xlink="http://www.w3.org/1999/xlink">
    <!-- Generator: Sketch 49 (51002) - http://www.bohemiancoding.com/sketch -->
    <title>contact-button</title>
    <desc>Created with Sketch.</desc>
    <defs></defs>
    <g id="Page-1" stroke="none" stroke-width="1" fill="none" fill-rule="evenodd">
        <g id="Desktop-HD" transform="translate(-606.000000, -441.000000)">
            <g id="contact-button" transform="translate(606.000000, 441.000000)">
                <rect id="Rectangle" fill="#F2CF5A" x="0" y="0" width="120" height="120" rx="6"></rect>
                <path d="M81.2,40.8 C75.3,34.9 67.4,31.8 59.1,32 C43.1,32.5 30,46.2 30,62.6 L30,72 C30,75.3 32.7,78 36,78 L40,78 L40,82.8 C40,85.4 41.9,87.7 44.5,88 C47.5,88.3 50,85.9 50,83 L50,65.2 C50,62.6 48.1,60.3 45.5,60 C42.5,59.7 40,62.1 40,65 L40,72 L38,72 C36.9,72 36,71.1 36,70 L36,62.6 C36,49.4 46.5,38.4 59.3,38 C65.9,37.8 72,40.2 76.7,44.8 C81.4,49.4 84,55.5 84,62 L84,70 C84,71.1 83.1,72 82,72 L80,72 L80,65.2 C80,62.6 78.1,60.3 75.5,60 C72.5,59.7 70,62.1 70,65 L70,82.8 C70,85.4 71.9,87.7 74.5,88 C77.5,88.3 80,85.9 80,83 L80,78 L84,78 C87.3,78 90,75.3 90,72 L90,62.6 C90,54.5 87,46.6 81.2,40.8 Z" id="Shape" fill="#FFFFFF" fill-rule="nonzero"></path>
            </g>
        </g>
    </g>
</svg>