<?xml version="1.0" encoding="UTF-8" standalone="no"?>
<svg width="200px" height="200px" viewBox="0 0 200 200" version="1.1" xmlns="http://www.w3.org/2000/svg" xmlns:xlink="http://www.w3.org/1999/xlink" xmlns:sketch="http://www.bohemiancoding.com/sketch/ns">
    <!-- Generator: Sketch 3.4.2 (15857) - http://www.bohemiancoding.com/sketch -->
    <title>snippet</title>
    <desc>Created with Sketch.</desc>
    <defs></defs>
    <g id="Page-2" stroke="none" stroke-width="1" fill="none" fill-rule="evenodd" sketch:type="MSPage">
        <g id="snippet" sketch:type="MSLayerGroup" fill="#62B7ED">
            <path d="M0,0 L200,0 L200,200 L0,200 L0,0 Z M69.8451577,49.375 L41.1289414,49.375 C38.8766892,49.375 37.1875,51.0641892 37.1875,53.3164414 L37.1875,87.1002252 C37.1875,88.7894144 38.8766892,91.0416667 41.1289414,91.0416667 L69.8451577,91.0416667 C72.0974099,91.0416667 73.7865991,88.7894144 73.7865991,87.1002252 L73.7865991,53.3164414 C73.7865991,51.0641892 72.0974099,49.375 69.8451577,49.375 L69.8451577,49.375 Z M158.246059,49.375 L87.8631757,49.375 C86.1739865,49.375 83.9217342,51.0641892 83.9217342,53.3164414 L83.9217342,60.6362613 C83.9217342,62.8885135 86.1739865,64.5777027 87.8631757,64.5777027 L158.246059,64.5777027 C160.498311,64.5777027 162.1875,62.8885135 162.1875,60.6362613 L162.1875,53.3164414 C162.1875,51.0641892 160.498311,49.375 158.246059,49.375 L158.246059,49.375 Z M87.8631757,91.0416667 L132.345158,91.0416667 C134.034347,91.0416667 136.286599,88.7894144 136.286599,87.1002252 L136.286599,79.2173423 C136.286599,76.9650901 134.034347,75.2759009 132.345158,75.2759009 L87.8631757,75.2759009 C86.1739865,75.2759009 83.9217342,76.9650901 83.9217342,79.2173423 L83.9217342,87.1002252 C83.9217342,88.7894144 86.1739865,91.0416667 87.8631757,91.0416667 L87.8631757,91.0416667 Z M69.8451577,111.311937 L41.1289414,111.311937 C38.8766892,111.311937 37.1875,113.564189 37.1875,115.253378 L37.1875,149.037162 C37.1875,151.289414 38.8766892,152.978604 41.1289414,152.978604 L69.8451577,152.978604 C72.0974099,152.978604 73.7865991,151.289414 73.7865991,149.037162 L73.7865991,115.253378 C73.7865991,113.564189 72.0974099,111.311937 69.8451577,111.311937 L69.8451577,111.311937 Z M158.246059,111.311937 L87.8631757,111.311937 C86.1739865,111.311937 83.9217342,113.564189 83.9217342,115.253378 L83.9217342,123.136261 C83.9217342,125.388514 86.1739865,127.077703 87.8631757,127.077703 L158.246059,127.077703 C160.498311,127.077703 162.1875,125.388514 162.1875,123.136261 L162.1875,115.253378 C162.1875,113.564189 160.498311,111.311937 158.246059,111.311937 L158.246059,111.311937 Z M132.345158,137.775901 L87.8631757,137.775901 C86.1739865,137.775901 83.9217342,139.46509 83.9217342,141.717342 L83.9217342,149.037162 C83.9217342,151.289414 86.1739865,152.978604 87.8631757,152.978604 L132.345158,152.978604 C134.034347,152.978604 136.286599,151.289414 136.286599,149.037162 L136.286599,141.717342 C136.286599,139.46509 134.034347,137.775901 132.345158,137.775901 L132.345158,137.775901 Z" id="Shape" sketch:type="MSShapeGroup"></path>
        </g>
    </g>
</svg>