<?xml version="1.0" encoding="UTF-8" standalone="no"?>
<svg width="200px" height="200px" viewBox="0 0 200 200" version="1.1" xmlns="http://www.w3.org/2000/svg" xmlns:xlink="http://www.w3.org/1999/xlink" xmlns:sketch="http://www.bohemiancoding.com/sketch/ns">
    <!-- Generator: Sketch 3.4.3 (16044) - http://www.bohemiancoding.com/sketch -->
    <title>table</title>
    <desc>Created with Sketch.</desc>
    <defs></defs>
    <g id="Page-2" stroke="none" stroke-width="1" fill="none" fill-rule="evenodd" sketch:type="MSPage">
        <g id="table" sketch:type="MSLayerGroup" fill="#2A739E">
            <path d="M0,0 L200,0 L200,200 L0,200 L0,0 Z M158.210784,34.375 L41.7892157,34.375 C39.9509804,34.375 37.5,36.2132353 37.5,38.6642157 L37.5,52.7573529 C37.5,55.2083333 39.9509804,57.0465686 41.7892157,57.0465686 L158.210784,57.0465686 C160.04902,57.0465686 162.5,55.2083333 162.5,52.7573529 L162.5,38.6642157 C162.5,36.2132353 160.04902,34.375 158.210784,34.375 L158.210784,34.375 Z M67.5245098,68.6887255 L41.7892157,68.6887255 C39.9509804,68.6887255 37.5,70.5269608 37.5,72.9779412 L37.5,80.9436275 C37.5,83.3946078 39.9509804,85.2328431 41.7892157,85.2328431 L67.5245098,85.2328431 C69.9754902,85.2328431 71.8137255,83.3946078 71.8137255,80.9436275 L71.8137255,72.9779412 C71.8137255,70.5269608 69.9754902,68.6887255 67.5245098,68.6887255 L67.5245098,68.6887255 Z M112.867647,68.6887255 L87.1323529,68.6887255 C85.2941176,68.6887255 82.8431373,70.5269608 82.8431373,72.9779412 L82.8431373,80.9436275 C82.8431373,83.3946078 85.2941176,85.2328431 87.1323529,85.2328431 L112.867647,85.2328431 C114.705882,85.2328431 117.156863,83.3946078 117.156863,80.9436275 L117.156863,72.9779412 C117.156863,70.5269608 114.705882,68.6887255 112.867647,68.6887255 L112.867647,68.6887255 Z M158.210784,68.6887255 L132.47549,68.6887255 C130.02451,68.6887255 128.186275,70.5269608 128.186275,72.9779412 L128.186275,80.9436275 C128.186275,83.3946078 130.02451,85.2328431 132.47549,85.2328431 L158.210784,85.2328431 C160.04902,85.2328431 162.5,83.3946078 162.5,80.9436275 L162.5,72.9779412 C162.5,70.5269608 160.04902,68.6887255 158.210784,68.6887255 L158.210784,68.6887255 Z M67.5245098,96.875 L41.7892157,96.875 C39.9509804,96.875 37.5,98.7132353 37.5,101.164216 L37.5,109.742647 C37.5,111.580882 39.9509804,113.419118 41.7892157,113.419118 L67.5245098,113.419118 C69.9754902,113.419118 71.8137255,111.580882 71.8137255,109.742647 L71.8137255,101.164216 C71.8137255,98.7132353 69.9754902,96.875 67.5245098,96.875 L67.5245098,96.875 Z M112.867647,96.875 L87.1323529,96.875 C85.2941176,96.875 82.8431373,98.7132353 82.8431373,101.164216 L82.8431373,109.742647 C82.8431373,111.580882 85.2941176,113.419118 87.1323529,113.419118 L112.867647,113.419118 C114.705882,113.419118 117.156863,111.580882 117.156863,109.742647 L117.156863,101.164216 C117.156863,98.7132353 114.705882,96.875 112.867647,96.875 L112.867647,96.875 Z M158.210784,96.875 L132.47549,96.875 C130.02451,96.875 128.186275,98.7132353 128.186275,101.164216 L128.186275,109.742647 C128.186275,111.580882 130.02451,113.419118 132.47549,113.419118 L158.210784,113.419118 C160.04902,113.419118 162.5,111.580882 162.5,109.742647 L162.5,101.164216 C162.5,98.7132353 160.04902,96.875 158.210784,96.875 L158.210784,96.875 Z M67.5245098,125.061275 L41.7892157,125.061275 C39.9509804,125.061275 37.5,126.89951 37.5,129.35049 L37.5,137.928922 C37.5,139.767157 39.9509804,142.218137 41.7892157,142.218137 L67.5245098,142.218137 C69.9754902,142.218137 71.8137255,139.767157 71.8137255,137.928922 L71.8137255,129.35049 C71.8137255,126.89951 69.9754902,125.061275 67.5245098,125.061275 L67.5245098,125.061275 Z M112.867647,125.061275 L87.1323529,125.061275 C85.2941176,125.061275 82.8431373,126.89951 82.8431373,129.35049 L82.8431373,137.928922 C82.8431373,139.767157 85.2941176,142.218137 87.1323529,142.218137 L112.867647,142.218137 C114.705882,142.218137 117.156863,139.767157 117.156863,137.928922 L117.156863,129.35049 C117.156863,126.89951 114.705882,125.061275 112.867647,125.061275 L112.867647,125.061275 Z M158.210784,125.061275 L132.47549,125.061275 C130.02451,125.061275 128.186275,126.89951 128.186275,129.35049 L128.186275,137.928922 C128.186275,139.767157 130.02451,142.218137 132.47549,142.218137 L158.210784,142.218137 C160.04902,142.218137 162.5,139.767157 162.5,137.928922 L162.5,129.35049 C162.5,126.89951 160.04902,125.061275 158.210784,125.061275 L158.210784,125.061275 Z M67.5245098,153.247549 L41.7892157,153.247549 C39.9509804,153.247549 37.5,155.085784 37.5,157.536765 L37.5,166.115196 C37.5,168.566176 39.9509804,170.404412 41.7892157,170.404412 L67.5245098,170.404412 C69.9754902,170.404412 71.8137255,168.566176 71.8137255,166.115196 L71.8137255,157.536765 C71.8137255,155.085784 69.9754902,153.247549 67.5245098,153.247549 L67.5245098,153.247549 Z M112.867647,153.247549 L87.1323529,153.247549 C85.2941176,153.247549 82.8431373,155.085784 82.8431373,157.536765 L82.8431373,166.115196 C82.8431373,168.566176 85.2941176,170.404412 87.1323529,170.404412 L112.867647,170.404412 C114.705882,170.404412 117.156863,168.566176 117.156863,166.115196 L117.156863,157.536765 C117.156863,155.085784 114.705882,153.247549 112.867647,153.247549 L112.867647,153.247549 Z M158.210784,153.247549 L132.47549,153.247549 C130.02451,153.247549 128.186275,155.085784 128.186275,157.536765 L128.186275,166.115196 C128.186275,168.566176 130.02451,170.404412 132.47549,170.404412 L158.210784,170.404412 C160.04902,170.404412 162.5,168.566176 162.5,166.115196 L162.5,157.536765 C162.5,155.085784 160.04902,153.247549 158.210784,153.247549 L158.210784,153.247549 Z" id="Shape" sketch:type="MSShapeGroup"></path>
        </g>
    </g>
</svg>