<?xml version="1.0" encoding="UTF-8" standalone="no"?>
<svg width="200" height="200" viewBox="0 0 50 50" version="1.1"
    xmlns="http://www.w3.org/2000/svg" xmlns:xlink="http://www.w3.org/1999/xlink"
    xmlns:sketch="http://www.bohemiancoding.com/sketch/ns">
    <title>table</title>
    <desc>Created with Sketch.</desc>
    <defs></defs>
    <g id="Page-2" stroke="none" stroke-width="1" fill="none" fill-rule="evenodd"
        sketch:type="MSPage">
    <g id="table" sketch:type="MSLayerGroup" fill="#2A739E">
        <path
            d="M50.1,30.56a1.16,1.16,0,0,1-2,.82L42.73,26,30.32,36.65a3.39,3.39,0,0,1-4.92,0l-7.49-8.54L4.57,39.81a1.13,1.13,0,0,1-1.64,0l-.59-.59a1.13,1.13,0,0,1,0-1.64L15.46,19.68a3.39,3.39,0,0,1,4.92,0l7.49,7.49,7.61-8.78-4.92-4.45a1.26,1.26,0,0,1,.82-2.11H47.76A2.35,2.35,0,0,1,50,14.3Z"
            fill="#2A739E" />
            </g>
    </g>
</svg>