<?xml version="1.0" encoding="UTF-8" standalone="no"?>
<svg width="200px" height="200px" viewBox="0 0 200 200" version="1.1" xmlns="http://www.w3.org/2000/svg" xmlns:xlink="http://www.w3.org/1999/xlink" xmlns:sketch="http://www.bohemiancoding.com/sketch/ns">
    <!-- Generator: Sketch 3.4.2 (15857) - http://www.bohemiancoding.com/sketch -->
    <title>language-picklist</title>
    <desc>Created with Sketch.</desc>
    <defs></defs>
    <g id="Page-2" stroke="none" stroke-width="1" fill="none" fill-rule="evenodd" sketch:type="MSPage">
        <g id="picklist" sketch:type="MSLayerGroup" fill="#6bbd6e">
            <path d="M0,0 L200,0 L200,200 L0,200 L0,0 Z M165.625,150 C169.0625,150 171.875,147.1875 171.875,143.75 L171.875,62.5 C171.875,59.0625 169.0625,56.25 165.625,56.25 L28.125,56.25 C24.6875,56.25 21.875,59.0625 21.875,62.5 L21.875,143.75 C21.875,147.1875 24.6875,150 28.125,150 L165.625,150 L165.625,150 Z M34.375,137.5 L34.375,68.75 L159.375,68.75 L159.375,137.5 L34.375,137.5 L34.375,137.5 Z M117.1875,93.75 L146.25,93.75 C147.1875,93.75 147.5,94.6875 146.875,95.3125 L132.5,111.875 C131.875,112.5 130.9375,112.5 130.3125,111.875 L115.9375,95.3125 C115.625,94.6875 116.25,93.75 117.1875,93.75 L117.1875,93.75 Z" id="Shape" sketch:type="MSShapeGroup"></path>
        </g>
    </g>
</svg>