<?xml version="1.0" encoding="utf-8"?>
<!-- Generator: Adobe Illustrator 19.1.0, SVG Export Plug-In . SVG Version: 6.00 Build 0)  -->
<svg version="1.1" id="Layer_1" xmlns:sketch="http://www.bohemiancoding.com/sketch/ns"
	 xmlns="http://www.w3.org/2000/svg" xmlns:xlink="http://www.w3.org/1999/xlink" x="0px" y="0px" viewBox="-205 297 200 200"
	 style="enable-background:new -205 297 200 200;" xml:space="preserve">
<style type="text/css">
	.st0{fill:#a96404;}
</style>
<title>side_list</title>
<desc>Created with Sketch.</desc>
<g id="Page-1" sketch:type="MSPage">
	<g id="side_list" sketch:type="MSLayerGroup">
		<path id="Shape" sketch:type="MSShapeGroup" class="st0" d="M-205,297H-5v200h-200V297z M-46.4,340.8h-70.4
			c-1.7,0-3.9,2.3-3.9,3.9v107c0,1.7,2.3,3.9,3.9,3.9h70.4c2.3,0,3.9-2.3,3.9-3.9v-107C-42.5,343-44.2,340.8-46.4,340.8L-46.4,340.8
			z M-134.8,340.8h-28.7c-2.3,0-3.9,2.3-3.9,3.9v13c0,2.3,1.7,3.9,3.9,3.9h28.7c2.3,0,3.9-1.7,3.9-3.9v-13
			C-130.9,343-132.6,340.8-134.8,340.8L-134.8,340.8z M-134.8,372.3h-28.7c-2.3,0-3.9,1.7-3.9,3.9v13c0,2.3,1.7,3.9,3.9,3.9h28.7
			c2.3,0,3.9-1.7,3.9-3.9v-13C-130.9,374-132.6,372.3-134.8,372.3L-134.8,372.3z M-134.8,403.2h-28.7c-2.3,0-3.9,1.7-3.9,3.9v13
			c0,2.3,1.7,3.9,3.9,3.9h28.7c2.3,0,3.9-1.7,3.9-3.9v-13C-130.9,404.9-132.6,403.2-134.8,403.2L-134.8,403.2z M-134.8,434.8h-28.7
			c-2.3,0-3.9,1.7-3.9,3.9v13c0,1.7,1.7,3.9,3.9,3.9h28.7c2.3,0,3.9-2.3,3.9-3.9v-13C-130.9,436.5-132.6,434.8-134.8,434.8
			L-134.8,434.8z"/>
	</g>
</g>
</svg>
