<!--
  - Copyright 2024 salesforce.com, inc.
  - All Rights Reserved
  - Company Confidential
  -->

<svg xmlns="http://www.w3.org/2000/svg" x="0px" y="0px" width="100px" height="100px" viewBox="0 0 100 100" enable-background="new 0 0 100 100" xml:space="preserve">
    <g>
        <rect width="100%" height="100%" fill="#06A59A" />
        <path fill="#FFFFFF" d="m39 32h22a2 2 0 0 0 2-2v-4a6 6 0 0 0-6-6h-14a6 6 0 0 0-6 6v4a2 2 0 0 0 2 2z m33-7h-2a0.9 0.9 0 0 0-1 1v4a8 8 0 0 1-8 8h-22a8 8 0 0 1-8-8v-4a0.9 0.9 0 0 0-1-1h-2a6 6 0 0 0-6 6v43a6 6 0 0 0 6 6h44a6 6 0 0 0 6-6v-43a6 6 0 0 0-6-6z m-15 39a2 2 0 0 1-2 2h-20.1a2 2 0 0 1-2-2v-2a2 2 0 0 1 2-2h20.1a2 2 0 0 1 2 2z m10-10a2 2 0 0 1-2 2h-30.1a2 2 0 0 1-2-2v-2a2 2 0 0 1 2-2h30.1a2 2 0 0 1 2 2z" ></path>
    </g>
</svg>