<svg version="1.1" id="Layer_1" xmlns="http://www.w3.org/2000/svg" xmlns:xlink="http://www.w3.org/1999/xlink" x="0px" y="0px"
	 viewBox="10 -10 120 120" style="enable-background:new 10 -10 120 120;" xml:space="preserve">
<path fill="#2EC2BA" d="M130,98c0,6.6-5.4,12-12,12H22c-6.6,0-12-5.4-12-12V2c0-6.6,5.4-12,12-12h96c6.6,0,12,5.4,12,12V98z"/>
<path fill="white" d="M70,10c-22,0-40,18-40,40s18,40,40,40s40-18,40-40S92,10,70,10z M70,20.7c16.1,0,29.3,13.2,29.3,29.3
	c0,1.3-0.1,2.7-0.3,4H87.1c-1.3,0-2.4,0.9-2.7,2.3c-1.1,6.9-7.2,12.4-14.5,12.4s-13.5-5.5-14.5-12.4C55.3,55,54.1,54,52.7,54H40.8
	c-0.1-1.3-0.3-2.7-0.3-4C40.7,33.9,53.9,20.7,70,20.7z M66.9,59.9c3.2,1.7,7.3,0.4,9.1-2.8c2.5-4.7,7.3-25.2,6.1-25.7
	C80.9,30.7,66.6,46.2,64.2,51C62.4,54.1,63.6,58.1,66.9,59.9z"/>
</svg>
