<?xml version="1.0" encoding="UTF-8" standalone="no"?>
<svg width="200px" height="200px" viewBox="0 0 200 200" version="1.1" xmlns="http://www.w3.org/2000/svg" xmlns:xlink="http://www.w3.org/1999/xlink" xmlns:sketch="http://www.bohemiancoding.com/sketch/ns">
    <!-- Generator: Sketch 3.4.3 (16044) - http://www.bohemiancoding.com/sketch -->
    <title>related_list</title>
    <desc>Created with Sketch.</desc>
    <defs></defs>
    <g id="Page-2" stroke="none" stroke-width="1" fill="none" fill-rule="evenodd" sketch:type="MSPage">
        <g id="related_list" sketch:type="MSLayerGroup" fill="#2A739E">
            <path d="M0,0 L200,0 L200,200 L0,200 L0,0 Z M147.722572,33.75 L78.4779676,33.75 C71.283723,33.75 64.988759,39.1456835 64.988759,46.3399281 L64.988759,49.0377698 C64.988759,49.9370504 65.8880396,50.8363309 67.6866007,50.8363309 L129.73696,50.8363309 C136.931205,50.8363309 143.226169,57.131295 143.226169,64.3255396 L143.226169,130.872302 C143.226169,131.771583 144.12545,132.670863 145.02473,132.670863 C153.118255,132.670863 160.3125,126.375899 160.3125,118.282374 L160.3125,46.3399281 C160.3125,39.1456835 154.916817,33.75 147.722572,33.75 L147.722572,33.75 Z M47.9024281,64.3255396 C40.7081835,64.3255396 35.3125,69.721223 35.3125,76.9154676 L35.3125,150.656475 C35.3125,157.850719 40.7081835,163.246403 47.9024281,163.246403 L117.147032,163.246403 C124.341277,163.246403 129.73696,157.850719 129.73696,150.656475 L129.73696,76.9154676 C129.73696,69.721223 124.341277,64.3255396 117.147032,64.3255396 L47.9024281,64.3255396 L47.9024281,64.3255396 Z M64.988759,94.0017986 C64.988759,96.6996403 63.1901978,98.4982014 61.3916367,98.4982014 L56.8952338,98.4982014 C54.1973921,98.4982014 52.3988309,96.6996403 52.3988309,94.0017986 L52.3988309,89.5053957 C52.3988309,87.7068345 54.1973921,85.9082734 56.8952338,85.9082734 L61.3916367,85.9082734 C63.1901978,85.9082734 64.988759,87.7068345 64.988759,89.5053957 L64.988759,94.0017986 L64.988759,94.0017986 Z M112.650629,94.0017986 C112.650629,96.6996403 110.852068,98.4982014 108.154227,98.4982014 L78.4779676,98.4982014 C75.7801259,98.4982014 73.9815647,96.6996403 73.9815647,94.0017986 L73.9815647,89.5053957 C73.9815647,87.7068345 75.7801259,85.9082734 78.4779676,85.9082734 L108.154227,85.9082734 C110.852068,85.9082734 112.650629,87.7068345 112.650629,89.5053957 L112.650629,94.0017986 L112.650629,94.0017986 Z M64.988759,115.584532 C64.988759,118.282374 63.1901978,120.080935 61.3916367,120.080935 L56.8952338,120.080935 C54.1973921,120.080935 52.3988309,118.282374 52.3988309,115.584532 L52.3988309,111.088129 C52.3988309,109.289568 54.1973921,107.491007 56.8952338,107.491007 L61.3916367,107.491007 C63.1901978,107.491007 64.988759,109.289568 64.988759,111.088129 L64.988759,115.584532 L64.988759,115.584532 Z M112.650629,115.584532 C112.650629,118.282374 110.852068,120.080935 108.154227,120.080935 L78.4779676,120.080935 C75.7801259,120.080935 73.9815647,118.282374 73.9815647,115.584532 L73.9815647,111.088129 C73.9815647,109.289568 75.7801259,107.491007 78.4779676,107.491007 L108.154227,107.491007 C110.852068,107.491007 112.650629,109.289568 112.650629,111.088129 L112.650629,115.584532 L112.650629,115.584532 Z M64.988759,137.167266 C64.988759,139.865108 63.1901978,141.663669 61.3916367,141.663669 L56.8952338,141.663669 C54.1973921,141.663669 52.3988309,139.865108 52.3988309,137.167266 L52.3988309,132.670863 C52.3988309,130.872302 54.1973921,129.073741 56.8952338,129.073741 L61.3916367,129.073741 C63.1901978,129.073741 64.988759,130.872302 64.988759,132.670863 L64.988759,137.167266 L64.988759,137.167266 Z M112.650629,137.167266 C112.650629,139.865108 110.852068,141.663669 108.154227,141.663669 L78.4779676,141.663669 C75.7801259,141.663669 73.9815647,139.865108 73.9815647,137.167266 L73.9815647,132.670863 C73.9815647,130.872302 75.7801259,129.073741 78.4779676,129.073741 L108.154227,129.073741 C110.852068,129.073741 112.650629,130.872302 112.650629,132.670863 L112.650629,137.167266 L112.650629,137.167266 Z" id="Shape" sketch:type="MSShapeGroup"></path>
        </g>
    </g>
</svg>